<svg xmlns="http://www.w3.org/2000/svg" version="1.1" xmlns:xlink="http://www.w3.org/1999/xlink" xmlns:svgjs="http://svgjs.dev/svgjs" width="57" height="56"><svg width="57" height="56" viewBox="0 0 57 56" fill="none" xmlns="http://www.w3.org/2000/svg">
<g clip-path="url(#clip0_115_2071)">
<path d="M6.66199 24.7932L9.86252 24.8121L13.063 24.8309L19.4264 18.4676L25.7897 12.1043L25.7708 8.90375L25.752 5.70322M6.66199 31.1565L9.86252 31.1377L13.063 31.1188L19.4264 37.4821L25.7897 43.8454L25.7708 47.046L25.752 50.2465M32.1153 5.70322L32.0964 8.90375L32.0776 12.1043L38.4409 18.4676L44.8042 24.8309L48.0047 24.8121L51.2053 24.7932M51.2053 31.1565L48.0047 31.1377L44.8042 31.1188L38.4409 37.4821L32.0776 43.8454L32.0964 47.046L32.1153 50.2465M5.48472 27.9987L12.2299 27.9749M28.882 4.55106L28.9336 11.2711M28.9177 51.4007L28.9336 44.6786M52.3366 27.944L45.6373 27.9749M8.24339 34.3476L22.5609 48.6651M22.5609 7.28462L8.24339 21.6021M35.3064 7.28462L49.6239 21.6021M35.3064 48.6651L49.6239 34.3476M15.234 27.7564L28.9282 41.4507M15.234 27.7564L22.6502 19.771L25.5047 19.771H27.2165M15.234 27.7564L22.0811 27.7564M42.6225 27.7564L28.9282 41.4507M42.6225 27.7564L35.2063 19.771H32.3518H30.64M42.6225 27.7564L35.7754 27.7564M28.9282 41.4507L22.0811 27.7564M28.9282 41.4507L35.7754 27.7564M22.0811 27.7564H28.9282L35.7754 27.7564M22.0811 27.7564L27.2165 19.771M35.7754 27.7564L30.64 19.771M30.64 19.771H28.9282L27.2165 19.771M30.2415 1.33303C30.9777 2.06924 30.9777 3.26288 30.2415 3.99909C29.5053 4.7353 28.3117 4.7353 27.5754 3.99909C26.8392 3.26288 26.8392 2.06924 27.5754 1.33303C28.3117 0.59682 29.5053 0.596821 30.2415 1.33303ZM4.93271 26.6418C5.66892 27.378 5.66892 28.5717 4.93271 29.3079C4.1965 30.0441 3.00286 30.0441 2.26665 29.3079C1.53044 28.5717 1.53044 27.378 2.26665 26.6418C3.00286 25.9056 4.1965 25.9056 4.93271 26.6418ZM30.3421 51.9506C31.0783 52.6868 31.0783 53.8805 30.3421 54.6167C29.6059 55.3529 28.4123 55.3529 27.6761 54.6167C26.9398 53.8805 26.9398 52.6868 27.6761 51.9506C28.4123 51.2144 29.6059 51.2144 30.3421 51.9506ZM55.5503 26.7424C56.2865 27.4786 56.2865 28.6723 55.5503 29.4085C54.8141 30.1447 53.6204 30.1447 52.8842 29.4085C52.148 28.6723 52.148 27.4786 52.8842 26.7424C53.6204 26.0062 54.8141 26.0062 55.5503 26.7424Z" stroke="#00A682" stroke-width="1.5" stroke-linecap="round" stroke-linejoin="round"></path>
</g>
<defs>
<clipPath id="SvgjsClipPath1253">
<rect width="56" height="56" fill="white" transform="translate(0.933624)"></rect>
</clipPath>
</defs>
</svg><style>@media (prefers-color-scheme: light) { :root { filter: none; } }
@media (prefers-color-scheme: dark) { :root { filter: none; } }
</style></svg>